<svg xmlns="http://www.w3.org/2000/svg" viewBox="0 0 1600 800" width="1600" height="800" role="img" aria-label="Capa gerada para O bug">
  <defs>
    <linearGradient id="bg" x1="0" y1="0" x2="0.6" y2="1">
      <stop offset="0" stop-color="#063a5e"/>
      <stop offset="1" stop-color="#0e86c4"/>
    </linearGradient>
    <radialGradient id="glow" cx="0.345" cy="0.458" r="0.75">
      <stop offset="0" stop-color="#ff2f4e" stop-opacity="0.55"/>
      <stop offset="1" stop-color="#ff2f4e" stop-opacity="0"/>
    </radialGradient>
    <pattern id="dots" width="20.1" height="20.1" patternUnits="userSpaceOnUse">
      <circle cx="10.1" cy="10.1" r="4.0" fill="#12100e" opacity="0.5"/>
    </pattern>
  </defs>

  <rect width="1600" height="800" fill="url(#bg)"/>
  <rect width="1600" height="800" fill="url(#glow)"/>
  <path d="M1116.1 340.5L2339.6 314.6L1116.6 359.3ZM966.3 439.4L2307.6 706.6L963.6 453.2ZM770.8 451.0L2194.8 1072.9L763.9 467.0ZM785.4 524.7L1995.0 1422.8L773.2 541.3ZM890.3 704.7L1759.3 1685.7L858.8 733.5ZM880.3 965.8L1368.9 1957.3L847.4 982.7ZM735.7 836.8L1177.8 2041.8L721.1 842.2ZM591.3 780.2L692.5 2149.5L577.3 781.3ZM495.2 777.0L285.9 2135.2L484.6 775.4ZM410.7 889.7L19.3 2074.1L370.0 877.0ZM253.0 869.7L-417.3 1870.0L216.4 846.1ZM402.4 554.6L-622.7 1715.8L385.5 539.9ZM322.1 550.8L-861.8 1462.9L315.6 542.6ZM325.3 475.7L-1068.5 1124.9L322.5 469.8ZM-115.9 538.7L-1191.3 769.7L-123.8 504.5ZM83.9 400.2L-1236.8 412.6L82.8 356.5ZM78.3 277.8L-1188.5 -49.3L89.5 231.2ZM53.3 168.4L-1088.1 -349.3L67.7 135.4ZM11.8 -19.2L-873.7 -715.0L35.0 -49.8ZM286.1 66.2L-605.3 -998.3L299.0 55.3ZM243.4 -86.0L-415.6 -1138.7L268.1 -101.9ZM444.6 53.4L11.4 -1339.2L458.8 48.8ZM470.2 -180.8L357.1 -1412.1L512.7 -185.5ZM562.6 92.7L668.3 -1418.9L576.1 93.6ZM658.5 49.7L1167.9 -1313.1L674.7 55.6ZM726.4 5.2L1407.0 -1204.8L759.8 23.4ZM835.9 18.9L1717.9 -990.1L852.3 33.0ZM854.1 122.7L1978.0 -713.2L868.1 141.2ZM835.4 238.6L2208.5 -307.8L843.9 259.4ZM769.6 303.7L2280.7 -91.8L771.9 312.5Z" fill="rgba(18,16,14,0.55)" opacity="0.85"/>
  <g transform="rotate(-2.26 800.0 400.0)">
    <polygon points="1043.4,400.0 925.7,433.7 1010.8,521.7 899.9,499.9 921.7,610.8 836.8,537.5 800.0,643.4 765.9,527.2 678.3,610.8 682.9,517.1 589.2,521.7 645.4,441.4 556.6,400.0 680.6,368.0 589.2,278.3 679.7,279.7 678.3,189.2 763.3,262.9 800.0,156.6 842.4,241.8 921.7,189.2 911.1,288.9 1010.8,278.3 957.5,357.8" fill="#1b6cff" stroke="#12100e" stroke-width="7" stroke-linejoin="round"/>
    <text x="793.0" y="393.0" text-anchor="middle" dominant-baseline="central" font-family="Impact, Haettenschweiler, 'Arial Narrow Bold', 'Franklin Gothic Heavy', sans-serif" font-size="531" font-weight="700" fill="#ffd200" opacity="0.75">O</text>
    <text x="807.0" y="407.0" text-anchor="middle" dominant-baseline="central" font-family="Impact, Haettenschweiler, 'Arial Narrow Bold', 'Franklin Gothic Heavy', sans-serif" font-size="531" font-weight="700" fill="#ff2f4e" opacity="0.75">O</text>
    <text x="800.0" y="400.0" text-anchor="middle" dominant-baseline="central" font-family="Impact, Haettenschweiler, 'Arial Narrow Bold', 'Franklin Gothic Heavy', sans-serif" font-size="531" font-weight="700" fill="#fff6e0" opacity="1">O</text>
  </g>
  <rect width="1600" height="800" fill="url(#dots)" opacity="0.22"/>
  <rect x="6" y="6" width="1588" height="788" fill="none" stroke="#12100e" stroke-width="12"/>
</svg>
