<svg xmlns="http://www.w3.org/2000/svg" viewBox="0 0 1600 1000" width="1600" height="1000" role="img" aria-label="Capa gerada para Design System — Componentes">
  <defs>
    <linearGradient id="bg" x1="0" y1="0" x2="0.6" y2="1">
      <stop offset="0" stop-color="#041c3a"/>
      <stop offset="1" stop-color="#0b4a8f"/>
    </linearGradient>
    <radialGradient id="glow" cx="0.426" cy="0.428" r="0.75">
      <stop offset="0" stop-color="#00d4ff" stop-opacity="0.55"/>
      <stop offset="1" stop-color="#00d4ff" stop-opacity="0"/>
    </radialGradient>
    <pattern id="dots" width="16.7" height="16.7" patternUnits="userSpaceOnUse">
      <circle cx="8.3" cy="8.3" r="3.3" fill="#12100e" opacity="0.5"/>
    </pattern>
  </defs>

  <rect width="1600" height="1000" fill="url(#bg)"/>
  <rect width="1600" height="1000" fill="url(#glow)"/>
  <path d="M1057.3 412.1L2568.6 418.3L1057.4 439.2ZM935.4 445.2L2555.7 648.2L932.5 469.2ZM1163.6 561.8L2478.8 1002.7L1152.0 597.9ZM924.8 533.7L2382.7 1244.3L916.6 550.7ZM1314.9 828.4L2231.6 1503.8L1278.6 880.7ZM1130.6 826.5L2075.5 1699.4L1120.1 838.0ZM872.2 649.1L1860.8 1900.7L856.4 661.8ZM1021.4 1054.9L1532.5 2111.7L985.3 1073.1ZM788.7 692.8L1362.9 2187.1L781.5 695.6ZM789.2 970.1L990.1 2289.0L755.1 975.8ZM723.2 846.4L823.5 2309.0L703.7 847.9ZM661.5 835.0L493.5 2304.9L620.9 831.0ZM590.6 930.0L260.1 2266.6L545.1 919.6ZM516.9 803.5L-102.9 2143.4L505.4 798.3ZM314.2 1020.7L-336.0 2016.2L296.6 1009.5ZM391.4 731.6L-639.6 1774.3L383.4 723.7ZM428.4 663.5L-737.8 1670.3L414.4 647.5ZM296.2 652.6L-980.3 1320.4L281.2 624.8ZM275.1 585.1L-1099.9 1048.2L265.2 556.8ZM210.4 567.3L-1136.0 933.0L205.9 551.1ZM-59.9 505.9L-1198.4 584.0L-62.7 472.9ZM-21.6 366.8L-1191.0 198.8L-15.6 317.1ZM378.1 368.4L-1162.6 30.2L380.7 356.4ZM209.4 228.6L-1039.3 -345.4L219.3 206.5ZM390.5 269.5L-953.3 -513.9L398.9 254.8ZM494.3 269.9L-716.1 -839.7L506.6 256.2ZM160.6 -91.2L-614.8 -943.1L192.8 -121.7ZM421.0 75.9L-413.1 -1109.1L434.7 66.1ZM574.9 204.7L-56.0 -1309.0L595.7 195.9ZM507.7 -299.0L265.0 -1412.7L525.9 -303.1ZM620.1 -203.6L530.5 -1453.2L641.9 -205.4ZM662.1 -17.4L684.8 -1459.3L703.0 -17.3ZM754.9 -120.2L1007.5 -1431.0L799.4 -112.4ZM771.4 173.8L1337.5 -1341.7L779.3 176.7ZM928.5 -121.7L1524.8 -1260.5L972.7 -99.5ZM875.5 147.3L1826.2 -1072.7L900.9 166.7ZM995.5 123.7L2087.8 -830.8L1018.5 149.4ZM1167.7 47.1L2210.3 -678.8L1195.0 84.8ZM1018.1 246.2L2368.2 -418.8L1028.2 266.3ZM1021.9 305.7L2476.9 -153.9L1028.7 326.8ZM977.9 378.8L2554.6 197.3L980.9 403.0Z" fill="rgba(18,16,14,0.55)" opacity="0.85"/>
  <g transform="rotate(-2.82 800.0 500.0)">
    <g transform="rotate(7.84 800.0 500.0)"><path d="M532.2 232.2H974.5L1067.8 325.5V767.8H532.2Z" fill="#9dff2f" stroke="#12100e" stroke-width="7" stroke-linejoin="round"/></g>
    <text x="792.5" y="492.5" text-anchor="middle" dominant-baseline="central" font-family="Impact, Haettenschweiler, 'Arial Narrow Bold', 'Franklin Gothic Heavy', sans-serif" font-size="590" font-weight="700" fill="#ffd200" opacity="0.75">D</text>
    <text x="807.5" y="507.5" text-anchor="middle" dominant-baseline="central" font-family="Impact, Haettenschweiler, 'Arial Narrow Bold', 'Franklin Gothic Heavy', sans-serif" font-size="590" font-weight="700" fill="#00d4ff" opacity="0.75">D</text>
    <text x="800.0" y="500.0" text-anchor="middle" dominant-baseline="central" font-family="Impact, Haettenschweiler, 'Arial Narrow Bold', 'Franklin Gothic Heavy', sans-serif" font-size="590" font-weight="700" fill="#fff6e0" opacity="1">D</text>
  </g>
  <rect width="1600" height="1000" fill="url(#dots)" opacity="0.22"/>
  <rect x="6" y="6" width="1588" height="988" fill="none" stroke="#12100e" stroke-width="12"/>
</svg>
