<svg xmlns="http://www.w3.org/2000/svg" viewBox="0 0 800 1200" width="800" height="1200" role="img" aria-label="Capa gerada para Saga">
  <defs>
    <linearGradient id="bg" x1="0" y1="0" x2="0.6" y2="1">
      <stop offset="0" stop-color="#3a1206"/>
      <stop offset="1" stop-color="#a8340f"/>
    </linearGradient>
    <radialGradient id="glow" cx="0.605" cy="0.352" r="0.75">
      <stop offset="0" stop-color="#ff2f4e" stop-opacity="0.55"/>
      <stop offset="1" stop-color="#ff2f4e" stop-opacity="0"/>
    </radialGradient>
    <pattern id="dots" width="14.1" height="14.1" patternUnits="userSpaceOnUse">
      <circle cx="7.0" cy="7.0" r="2.8" fill="#12100e" opacity="0.5"/>
    </pattern>
  </defs>

  <rect width="800" height="1200" fill="url(#bg)"/>
  <rect width="800" height="1200" fill="url(#glow)"/>
  <path d="M710.5 412.6L1926.5 407.1L710.7 428.3ZM678.5 450.9L1902.0 688.3L675.5 467.1ZM843.2 597.6L1751.7 1111.4L826.2 629.0ZM735.0 610.0L1603.7 1332.5L718.7 630.1ZM833.7 832.1L1394.4 1541.9L813.7 848.4ZM588.2 646.1L1045.6 1751.5L572.0 653.0ZM544.0 683.1L758.3 1838.9L526.1 686.6ZM480.9 870.0L419.4 1863.7L447.7 868.5ZM392.3 754.9L72.8 1805.2L379.9 751.2ZM257.6 794.7L-293.6 1637.4L241.5 784.4ZM209.6 740.6L-483.6 1492.1L195.5 727.8ZM121.8 707.0L-690.3 1259.7L97.5 672.8ZM77.3 584.1L-875.9 902.2L66.2 552.6ZM64.6 484.9L-945.2 613.4L63.0 473.0ZM177.3 379.6L-940.5 199.9L178.7 370.4ZM315.8 369.4L-883.3 -34.7L317.5 364.3ZM71.8 205.0L-756.1 -312.8L95.3 165.4ZM154.5 71.0L-489.1 -641.2L163.1 63.1ZM299.7 137.6L-262.4 -810.9L317.3 127.0ZM404.1 143.1L107.1 -969.0L412.4 140.8ZM435.1 -141.9L426.5 -1018.1L488.2 -144.1ZM533.8 7.7L718.3 -1000.2L570.5 13.8ZM543.9 246.7L998.1 -924.7L557.3 251.8ZM620.5 239.5L1363.8 -720.1L626.8 244.4ZM824.7 103.0L1576.7 -518.8L850.9 133.5ZM781.1 238.8L1741.3 -284.2L795.8 265.0ZM693.9 358.0L1880.8 62.3L699.2 378.3Z" fill="rgba(18,16,14,0.55)" opacity="0.85"/>
  <g transform="rotate(6.67 400.0 600.0)">
    <g transform="rotate(5.19 400.0 600.0)"><path d="M187.9 387.9H526.8L612.1 473.2V812.1H187.9Z" fill="#1b6cff" stroke="#12100e" stroke-width="7" stroke-linejoin="round"/></g>
    <text x="392.8" y="592.8" text-anchor="middle" dominant-baseline="central" font-family="Impact, Haettenschweiler, 'Arial Narrow Bold', 'Franklin Gothic Heavy', sans-serif" font-size="544" font-weight="700" fill="#ffffff" opacity="0.75">S</text>
    <text x="407.2" y="607.2" text-anchor="middle" dominant-baseline="central" font-family="Impact, Haettenschweiler, 'Arial Narrow Bold', 'Franklin Gothic Heavy', sans-serif" font-size="544" font-weight="700" fill="#ff2f4e" opacity="0.75">S</text>
    <text x="400.0" y="600.0" text-anchor="middle" dominant-baseline="central" font-family="Impact, Haettenschweiler, 'Arial Narrow Bold', 'Franklin Gothic Heavy', sans-serif" font-size="544" font-weight="700" fill="#fff6e0" opacity="1">S</text>
  </g>
  <rect width="800" height="1200" fill="url(#dots)" opacity="0.22"/>
  <rect x="6" y="6" width="788" height="1188" fill="none" stroke="#12100e" stroke-width="12"/>
</svg>
