<svg xmlns="http://www.w3.org/2000/svg" viewBox="0 0 1000 1000" width="1000" height="1000" role="img" aria-label="Capa gerada para Faixa de teste">
  <defs>
    <linearGradient id="bg" x1="0" y1="0" x2="0.6" y2="1">
      <stop offset="0" stop-color="#2a0740"/>
      <stop offset="1" stop-color="#6b1bb0"/>
    </linearGradient>
    <radialGradient id="glow" cx="0.476" cy="0.589" r="0.75">
      <stop offset="0" stop-color="#8b3dff" stop-opacity="0.55"/>
      <stop offset="1" stop-color="#8b3dff" stop-opacity="0"/>
    </radialGradient>
    <pattern id="dots" width="18.4" height="18.4" patternUnits="userSpaceOnUse">
      <circle cx="9.2" cy="9.2" r="3.7" fill="#12100e" opacity="0.5"/>
    </pattern>
  </defs>

  <rect width="1000" height="1000" fill="url(#bg)"/>
  <rect width="1000" height="1000" fill="url(#glow)"/>
  <path d="M853.1 569.3L1890.5 572.3L853.4 600.3ZM815.0 630.5L1875.7 794.1L812.6 647.0ZM786.4 694.2L1805.2 1073.3L781.1 708.5ZM764.1 736.3L1726.3 1251.0L759.7 744.8ZM674.8 739.7L1588.8 1462.6L669.5 746.4ZM759.6 895.4L1412.4 1649.5L744.9 908.4ZM593.9 783.1L1191.0 1809.8L587.9 786.7ZM570.9 808.7L974.5 1913.0L549.9 816.6ZM545.1 965.6L704.3 1985.1L530.9 967.9ZM486.2 981.7L487.7 2003.6L472.9 981.8ZM421.7 906.8L211.1 1978.5L410.3 904.6ZM349.8 991.5L3.6 1922.2L321.3 981.4ZM319.7 897.4L-183.0 1840.5L310.9 892.8ZM182.1 957.8L-435.2 1670.6L163.0 941.7ZM344.5 711.1L-601.1 1505.4L335.0 700.0ZM315.9 695.2L-724.9 1335.6L310.4 686.3ZM147.6 728.8L-842.6 1099.6L139.4 707.5ZM85.9 674.7L-914.0 848.2L81.3 650.3ZM-59.1 597.2L-937.1 543.8L-57.5 547.0ZM-25.2 488.9L-904.2 282.9L-20.6 468.2ZM188.3 494.1L-844.7 84.8L198.1 468.3ZM83.8 349.7L-716.5 -170.3L93.2 335.1ZM147.6 330.8L-597.9 -330.4L170.2 304.4ZM234.7 303.2L-402.7 -518.4L252.6 289.0ZM215.0 110.8L-170.6 -668.2L239.0 98.5ZM321.8 189.4L5.2 -744.0L345.3 181.1ZM396.0 241.3L177.1 -792.8L405.6 239.3ZM457.3 45.8L447.4 -824.5L473.2 45.5ZM534.0 142.2L704.2 -806.4L563.9 147.0ZM621.4 124.3L960.1 -739.5L664.3 139.9ZM722.9 118.8L1180.7 -637.0L758.6 139.3ZM585.0 440.0L1339.3 -531.1L593.1 446.2ZM670.1 419.0L1580.2 -294.6L685.0 437.6ZM687.3 464.7L1713.2 -96.4L693.9 476.5ZM710.1 504.4L1819.6 146.9L714.8 518.9ZM655.8 552.9L1868.6 340.9L657.3 561.6Z" fill="rgba(18,16,14,0.55)" opacity="0.85"/>
  <g transform="rotate(-5.35 500.0 500.0)">
    <circle cx="500.0" cy="500.0" r="416.8" fill="#9dff2f" stroke="#12100e" stroke-width="7"/><circle cx="500.0" cy="500.0" r="277.9" fill="none" stroke="#12100e" stroke-width="7"/><circle cx="500.0" cy="500.0" r="138.9" fill="#9dff2f" stroke="#12100e" stroke-width="7"/>
    <text x="495.0" y="495.0" text-anchor="middle" dominant-baseline="central" font-family="Impact, Haettenschweiler, 'Arial Narrow Bold', 'Franklin Gothic Heavy', sans-serif" font-size="662" font-weight="700" fill="#ffd200" opacity="0.75">F</text>
    <text x="505.0" y="505.0" text-anchor="middle" dominant-baseline="central" font-family="Impact, Haettenschweiler, 'Arial Narrow Bold', 'Franklin Gothic Heavy', sans-serif" font-size="662" font-weight="700" fill="#8b3dff" opacity="0.75">F</text>
    <text x="500.0" y="500.0" text-anchor="middle" dominant-baseline="central" font-family="Impact, Haettenschweiler, 'Arial Narrow Bold', 'Franklin Gothic Heavy', sans-serif" font-size="662" font-weight="700" fill="#fff6e0" opacity="1">F</text>
  </g>
  <rect width="1000" height="1000" fill="url(#dots)" opacity="0.22"/>
  <rect x="6" y="6" width="988" height="988" fill="none" stroke="#12100e" stroke-width="12"/>
</svg>
