<svg xmlns="http://www.w3.org/2000/svg" viewBox="0 0 800 1200" width="800" height="1200" role="img" aria-label="Capa gerada para Através do Aranhaverso">
  <defs>
    <linearGradient id="bg" x1="0" y1="0" x2="0.6" y2="1">
      <stop offset="0" stop-color="#12043a"/>
      <stop offset="1" stop-color="#4a1178"/>
    </linearGradient>
    <radialGradient id="glow" cx="0.390" cy="0.580" r="0.75">
      <stop offset="0" stop-color="#ff6b1f" stop-opacity="0.55"/>
      <stop offset="1" stop-color="#ff6b1f" stop-opacity="0"/>
    </radialGradient>
    <pattern id="dots" width="15.2" height="15.2" patternUnits="userSpaceOnUse">
      <circle cx="7.6" cy="7.6" r="3.0" fill="#12100e" opacity="0.5"/>
    </pattern>
  </defs>

  <rect width="800" height="1200" fill="url(#bg)"/>
  <rect width="800" height="1200" fill="url(#glow)"/>
  <path d="M671.7 703.7L1752.9 758.1L671.1 718.9ZM504.3 715.1L1741.8 884.7L502.7 726.9ZM845.6 861.9L1668.6 1185.5L828.7 908.6ZM603.3 836.9L1593.4 1357.6L595.7 851.5ZM640.2 928.2L1475.1 1548.5L632.5 938.8ZM625.2 991.6L1333.3 1714.0L608.8 1008.0ZM601.7 1059.0L1156.7 1864.7L566.1 1084.7ZM575.3 1183.3L955.1 1986.6L542.7 1199.5ZM488.0 1223.9L726.9 2077.0L456.3 1233.4ZM344.5 869.9L543.8 2119.2L336.6 871.2ZM328.9 1078.2L322.4 2137.9L300.7 1078.4ZM278.1 932.4L69.9 2117.5L265.8 930.3ZM221.3 998.0L-123.9 2070.4L212.0 995.0ZM186.6 973.8L-301.5 2000.9L178.0 969.8ZM29.1 1134.3L-519.8 1873.9L-6.6 1109.1ZM-54.3 1075.6L-718.2 1705.0L-75.3 1054.2ZM52.4 876.3L-886.6 1497.7L46.1 866.8ZM41.3 841.0L-988.0 1320.2L29.4 816.2ZM52.7 802.8L-1042.8 1189.9L44.7 780.7ZM16.1 738.1L-1121.2 856.5L14.1 719.9ZM-257.1 723.6L-1129.6 735.4L-257.8 699.2ZM-171.4 621.7L-1106.6 436.2L-166.3 593.8ZM107.9 648.6L-1075.4 302.1L113.6 628.5ZM-35.8 528.4L-966.1 27.7L-24.0 505.6ZM-77.0 440.9L-882.2 -112.8L-69.0 429.1ZM43.0 462.1L-730.0 -301.4L66.8 437.2ZM87.3 404.2L-543.9 -465.0L100.0 394.8ZM181.1 469.5L-390.7 -563.7L188.3 465.5ZM163.7 249.3L-114.7 -681.9L182.1 243.6ZM248.8 368.7L84.0 -728.4L270.0 365.3ZM305.0 496.9L297.2 -746.4L315.0 496.8ZM351.2 240.3L506.3 -733.4L395.9 246.4ZM373.9 469.5L760.4 -675.1L395.8 476.7ZM526.0 209.3L920.7 -611.8L546.5 218.9ZM520.4 371.7L1109.5 -506.0L529.6 377.9ZM488.9 496.3L1287.7 -366.5L495.8 502.6ZM568.6 489.0L1460.2 -177.1L579.9 503.8ZM684.2 504.6L1614.3 75.8L695.0 527.3ZM764.2 554.9L1701.9 310.4L772.1 583.6ZM603.2 642.5L1741.9 507.1L607.0 671.6Z" fill="rgba(18,16,14,0.55)" opacity="0.85"/>
  <g transform="rotate(-2.68 400.0 600.0)">
    <circle cx="400.0" cy="600.0" r="255.5" fill="#00d4ff" stroke="#12100e" stroke-width="7"/><circle cx="400.0" cy="600.0" r="170.4" fill="none" stroke="#12100e" stroke-width="7"/><circle cx="400.0" cy="600.0" r="85.2" fill="#00d4ff" stroke="#12100e" stroke-width="7"/>
    <text x="394.4" y="594.4" text-anchor="middle" dominant-baseline="central" font-family="Impact, Haettenschweiler, 'Arial Narrow Bold', 'Franklin Gothic Heavy', sans-serif" font-size="515" font-weight="700" fill="#ff8fd0" opacity="0.75">A</text>
    <text x="405.6" y="605.6" text-anchor="middle" dominant-baseline="central" font-family="Impact, Haettenschweiler, 'Arial Narrow Bold', 'Franklin Gothic Heavy', sans-serif" font-size="515" font-weight="700" fill="#ff6b1f" opacity="0.75">A</text>
    <text x="400.0" y="600.0" text-anchor="middle" dominant-baseline="central" font-family="Impact, Haettenschweiler, 'Arial Narrow Bold', 'Franklin Gothic Heavy', sans-serif" font-size="515" font-weight="700" fill="#fff6e0" opacity="1">A</text>
  </g>
  <rect width="800" height="1200" fill="url(#dots)" opacity="0.22"/>
  <rect x="6" y="6" width="788" height="1188" fill="none" stroke="#12100e" stroke-width="12"/>
</svg>
